<svg xmlns="http://www.w3.org/2000/svg" xml:space="preserve" width="32" fill="#8b61a8" viewBox="0 0 512 512">
  <path d="M360.9 190.234a8.525 8.525 0 0 0 0 12.066l19.567 19.567H332.8c-4.719 0-8.533 3.823-8.533 8.533s3.814 8.533 8.533 8.533h47.667L360.9 258.5a8.525 8.525 0 0 0 0 12.066 8.51 8.51 0 0 0 6.033 2.5 8.509 8.509 0 0 0 6.033-2.5l34.125-34.125a8.53 8.53 0 0 0 1.852-2.782 8.54 8.54 0 0 0 0-6.519 8.53 8.53 0 0 0-1.852-2.782l-34.125-34.125a8.524 8.524 0 0 0-12.066.001zm-147.567-70.767H384c4.719 0 8.533-3.823 8.533-8.533S388.719 102.4 384 102.4H213.333c-4.719 0-8.533 3.823-8.533 8.533s3.814 8.534 8.533 8.534zm-17.066 170.666h68.267c4.719 0 8.533-3.823 8.533-8.533s-3.814-8.533-8.533-8.533h-68.267c-4.719 0-8.533 3.823-8.533 8.533s3.814 8.533 8.533 8.533zm0-102.4h51.2c4.719 0 8.533-3.823 8.533-8.533s-3.814-8.533-8.533-8.533h-51.2c-4.719 0-8.533 3.823-8.533 8.533s3.814 8.533 8.533 8.533zm0 51.2H281.6c4.719 0 8.533-3.823 8.533-8.533s-3.814-8.533-8.533-8.533h-85.333c-4.719 0-8.533 3.823-8.533 8.533s3.814 8.533 8.533 8.533zm136.533 256h-17.067c-4.719 0-8.533 3.823-8.533 8.533s3.814 8.533 8.533 8.533H332.8c4.719 0 8.533-3.823 8.533-8.533s-3.814-8.533-8.533-8.533zm170.667 0H366.933c-4.719 0-8.533 3.823-8.533 8.533s3.814 8.533 8.533 8.533h136.533c4.719 0 8.533-3.823 8.533-8.533s-3.813-8.533-8.532-8.533zm-238.934 0H179.2c-4.719 0-8.533 3.823-8.533 8.533S174.481 512 179.2 512h85.333c4.719 0 8.533-3.823 8.533-8.533s-3.814-8.534-8.533-8.534z"/>
  <path d="M162.133 102.4c-23.526 0-42.667 19.14-42.667 42.667v170.667c0 23.526 19.14 42.667 42.667 42.667H435.2c23.526 0 42.667-19.14 42.667-42.667V145.067c0-23.526-19.14-42.667-42.667-42.667h-8.533V68.267h76.8c4.719 0 8.533-3.823 8.533-8.533s-3.814-8.533-8.533-8.533H85.333V25.6c0-14.114-11.486-25.6-25.6-25.6s-25.6 11.486-25.6 25.6v469.333h-25.6c-4.719 0-8.533 3.823-8.533 8.533S3.814 512 8.533 512H128c4.719 0 8.533-3.823 8.533-8.533s-3.814-8.533-8.533-8.533H85.333V93.867c0-4.71-3.814-8.533-8.533-8.533s-8.533 3.823-8.533 8.533v401.067H51.2V25.6c0-4.702 3.823-8.533 8.533-8.533s8.533 3.831 8.533 8.533v34.133a8.53 8.53 0 0 0 8.533 8.533h93.867V102.4h-8.533zm17.067 17.067a8.53 8.53 0 0 0 8.533-8.533V68.267H409.6v42.667a8.53 8.53 0 0 0 8.533 8.533H435.2c14.114 0 25.6 11.486 25.6 25.6v170.667c0 14.114-11.486 25.6-25.6 25.6H162.133c-14.114 0-25.6-11.486-25.6-25.6V145.067c0-14.114 11.486-25.6 25.6-25.6H179.2z"/>
</svg>